<?xml version="1.0" encoding="utf-8"?>
<!-- Generator: Adobe Illustrator 19.0.0, SVG Export Plug-In . SVG Version: 6.00 Build 0)  -->
<svg version="1.1" id="Layer_1" xmlns="http://www.w3.org/2000/svg" xmlns:xlink="http://www.w3.org/1999/xlink" x="0px" y="0px"
	 viewBox="0 0 500.9 100.8" style="enable-background:new 0 0 500.9 100.8;" xml:space="preserve">
<style type="text/css">
	.st0{fill:#FFFFFF;}
</style>
<path d="M186.1,60.5c-1.1,0.9-2,1.7-2.9,2.6c-0.3,0.3-0.5,0.7-0.5,1.1c-0.8,4.4-1.6,8.9-2.4,13.3c-0.3,1.9-1,2.4-2.9,2.4
	c-4.2,0-8.5,0-12.7,0c-2.2,0-3.2-1.2-2.8-3.4C166,53,170,29.4,174.1,5.9c0.2-1.2,0.4-2.4,0.7-3.5c0.3-1.5,1.1-2.3,2.7-2.3
	c4.4,0,8.7-0.1,13.1,0c2.1,0,3,1.4,2.6,3.5c-1.9,10.6-3.7,21.2-5.5,31.8c0,0.1,0,0.2,0,0.5c0.4-0.4,0.7-0.7,1-1
	c3.7-3.7,7.4-7.4,11.1-11.1c1-1,2-1.4,3.4-1.4c5.2,0,10.5,0,15.7,0.1c0.9,0,1.9,0.4,2.6,0.9c1.1,0.9,0.8,2.4-0.4,3.7
	c-4.4,4.4-8.9,8.7-13.4,13.1c-2.4,2.4-4.8,4.8-7.3,7.1c-0.6,0.6-0.7,1-0.3,1.7c4.4,8.9,8.7,17.8,13.1,26.7c1.2,2.5-0.1,4.5-2.7,4.4
	c-4.5-0.1-9-0.1-13.4,0c-1.6,0-2.6-0.5-3.2-2.1C191.4,72.1,188.8,66.4,186.1,60.5z M177.1,2.5c-4.3,25-8.6,50-13,75
	c4.7,0,9.3,0,13.8,0c0.1-0.3,0.2-0.5,0.2-0.8c0.8-4.6,1.6-9.2,2.4-13.8c0.1-0.4,0.2-0.8,0.4-1.1c2-1.8,4-3.5,6-5.3
	c0.2,0.5,0.4,0.9,0.6,1.3c2.8,6.2,5.6,12.5,8.3,18.7c0.3,0.7,0.7,1,1.5,1c4.4,0,8.7,0,13.1,0c0.3,0,0.6,0,1-0.1
	c-4.9-10.1-9.8-20.1-14.7-30c7.7-7.5,15.3-15,23.1-22.7c-6,0-11.6,0-17.2,0c-0.4,0-0.9,0.3-1.2,0.6c-5.7,5.7-11.3,11.3-16.9,17
	c-0.2,0.2-0.4,0.3-0.7,0.5c2.4-13.6,4.7-27,7.1-40.5C186.3,2.5,181.8,2.5,177.1,2.5z"/>
<path d="M271,79.5c-2.3,0.5-4.6,1.2-6.9,1.3c-8.8,0.4-15.5-4-18.8-12.3c-2.3-5.9-2.7-12.1-1.9-18.3c0.9-6.7,2.8-12.9,6.7-18.5
	c5-7.1,11.7-10.8,20.4-10.6c3.8,0.1,6.7,1.1,11.2,3.8c0.1,0,0.2-0.1,0.2-0.1c1-2.4,1.4-2.7,4.1-2.7c3.4,0,6.7,0,10.1,0
	c2.8,0,3.7,1.1,3.2,3.9c-2.9,17.1-5.8,34.3-8.7,51.4c-2.1,12.3-11,20.9-23.3,22.9c-7.8,1.3-15.2,0.2-21.9-4.3
	c-1.8-1.2-3.3-2.7-4.8-4.3c-1.3-1.3-1.2-2.5,0-4c2-2.5,4-5,6.1-7.4c1.4-1.7,3.1-1.7,4.5,0c4.4,5.4,11.3,5.5,15.4,3.4
	C268.5,82.7,270,81.3,271,79.5z M241.9,90c1.8,1.5,3.3,3,5.1,4.2c5.8,3.8,12.2,4.7,18.9,4c10.4-1.1,19.2-8.4,21.8-18.6
	c1.1-4.3,1.7-8.8,2.4-13.2c2-11.6,3.9-23.3,5.9-35c0.4-2.3,0.8-4.5,1.1-6.9c-4.3,0-8.5,0-12.7,0c-0.6,1.6-1.2,3.2-1.8,4.9
	c-1.7-2.2-3.7-3.8-6.1-4.8c-6.9-2.6-16.6-1.5-23.1,6.5c-4.1,5-6.3,10.7-7.4,16.9c-1,6-1.1,11.9,0.7,17.8
	c4.7,14.8,20.1,15.5,28.1,7.8c0.2-0.2,0.4-0.3,0.6-0.4c-1.1,6-3.3,11.1-9.4,13.2c-6.7,2.3-12.5,0.3-17.1-5.1
	C246.7,84.2,244.4,86.9,241.9,90z"/>
<path d="M85.8,78c-3.4,1.9-7,2.9-10.8,2.9c-9.1,0-15.3-5-17.1-14c-0.8-4-0.4-8,0.3-12c1.7-9.8,3.3-19.6,4.9-29.4
	c0.4-2.5,1.1-3.1,3.6-3.1c3.8,0,7.7,0,11.5,0c2.9,0,3.8,1,3.3,3.8C79.9,36.8,78,47.4,76.3,58c-0.2,1.5-0.3,3-0.2,4.5
	c0.1,1.4,1,2.1,2.4,2.2c3.3,0.3,6.1-0.7,8.4-3.1c0.4-0.4,0.6-0.9,0.7-1.5c2-11.6,4.1-23.1,6.1-34.7c0.5-2.6,1.1-3.2,3.8-3.2
	c3.9,0,7.8,0,11.6,0c2.7,0,3.6,1.2,3.2,3.8c-2.6,15.1-5.2,30.1-7.9,45.2c-0.4,2.1-0.7,4.2-1.2,6.4c-0.3,1.6-1,2.2-2.6,2.2
	c-4.1,0-8.2,0-12.4,0C87.1,79.9,86.2,79.4,85.8,78z M65.7,24.8c-1.6,9.8-3.2,19.4-4.9,29c-0.7,3.9-1.3,7.9-0.7,11.9
	c0.9,6.1,4.7,10.9,10.1,12.2c6.6,1.6,12.6,0.2,17.7-4.5c0.3-0.3,0.6-0.6,1.2-1.1c-0.3,1.9-0.6,3.5-0.9,5.1c4.4,0,8.6,0,12.9,0
	c3.1-17.6,6.1-35.1,9.2-52.6c-4.7,0-9.3,0-13.9,0c-0.1,0.1-0.1,0.2-0.1,0.2c-2.1,12-4.2,24-6.3,36c-0.1,0.6-0.2,1.2-0.6,1.7
	c-3.1,3.5-6.9,5.1-11.5,4.4c-2-0.3-3.4-1.5-3.7-3.4c-0.3-1.6-0.4-3.3-0.2-4.9c1.3-8.2,2.8-16.5,4.2-24.7c0.5-3.1,1-6.1,1.5-9.3
	C74.9,24.8,70.3,24.8,65.7,24.8z"/>
<path d="M420.8,78c-3.4,1.9-7,2.9-10.8,2.9c-9.1,0-15.3-5-17.1-14c-0.8-4-0.4-8,0.3-12c1.7-9.8,3.3-19.6,4.9-29.4
	c0.4-2.5,1.1-3.1,3.6-3.1c3.8,0,7.7,0,11.5,0c2.9,0,3.8,1,3.3,3.8c-1.8,10.6-3.6,21.3-5.4,31.9c-0.2,1.4-0.3,2.9-0.2,4.4
	c0.1,1.5,1,2.2,2.4,2.3c3.3,0.3,6.1-0.7,8.4-3.1c0.4-0.4,0.6-0.9,0.7-1.5c2-11.6,4.1-23.1,6.1-34.7c0.5-2.6,1.1-3.2,3.8-3.2
	c3.9,0,7.8,0,11.6,0c2.7,0,3.6,1.2,3.2,3.8c-2.6,15.1-5.2,30.1-7.9,45.2c-0.4,2.2-0.8,4.3-1.2,6.5c-0.3,1.4-1,2.1-2.5,2.1
	c-4.2,0-8.4,0-12.6,0C422,79.9,421.2,79.3,420.8,78z M431.3,24.8c-0.1,0.2-0.1,0.4-0.1,0.6c-2.1,12-4.2,23.9-6.3,35.9
	c-0.1,0.5-0.2,1-0.5,1.3c-3.1,3.6-7,5.2-11.8,4.4c-1.8-0.3-3.2-1.4-3.5-3.2c-0.3-1.6-0.5-3.4-0.2-5c1.4-9.1,3-18.3,4.6-27.4
	c0.4-2.2,0.7-4.4,1.1-6.6c-4.7,0-9.2,0-13.8,0c0,0.2-0.1,0.4-0.1,0.5c-1.6,9.5-3.2,19-4.8,28.5c-0.7,4-1.4,8-0.7,12
	c1.1,5.9,3.9,10.5,10,12.1c6.6,1.7,12.6,0.3,17.7-4.4c0.3-0.3,0.7-0.6,1.2-1.2c-0.3,2-0.6,3.5-0.9,5.2c4.4,0,8.6,0,12.9,0
	c3.1-17.6,6.1-35.1,9.2-52.7C440.5,24.8,435.9,24.8,431.3,24.8z"/>
<path d="M154.2,46.8c-1.8,0-3.5,0-5.3,0c-2.6,0-3.3-0.6-3.5-3.2c-0.1-0.7-0.1-1.4-0.2-2c-0.9-3.8-3.8-4.9-7.8-3.8
	c-1.8,0.5-3,1.8-3.9,3.4c-1.7,2.8-2.5,6-2.8,9.2c-0.3,3-0.4,6-0.3,9c0,2,0.6,4.1,2.7,5c2.2,0.9,4.5,0.6,6.5-0.8
	c1.5-1.1,2.4-2.7,2.9-4.4c0.5-1.7,1.2-2.2,2.9-2.2c3.9,0,7.8,0,11.8,0c2.2,0,3.2,1,3,3.2c-0.7,7.2-4.2,12.8-10.3,16.6
	c-7.1,4.4-14.8,5.5-22.8,2.9c-7.8-2.5-12.5-8.2-14.2-16.1c-2.6-12.2-0.5-23.5,7.7-33.2c7-8.4,20.1-11.4,30.1-7
	c7.3,3.2,11,9.1,12.2,16.8c0.2,1.3,0.3,2.5,0.3,3.8c0,2.1-0.8,2.9-2.9,3C158.2,46.9,156.2,46.8,154.2,46.8z M160.8,44.4
	c-0.1-1.6-0.2-3.2-0.4-4.7c-1.3-7.6-5.5-13.1-13.1-15.1c-9.9-2.6-18.8-0.3-25.4,7.8c-7.7,9.5-9.5,20.6-6.2,32.2
	c1.9,6.9,6.8,11.5,13.9,13.2c3.7,0.9,7.4,1,11.1,0.1c7.7-1.8,13.5-5.9,16.2-13.6c0.6-1.6,0.8-3.4,1.2-5.1c-4.6,0-8.9,0-13.1,0
	c-0.6,2.2-1.5,4.2-3.2,5.6c-2.7,2.3-5.8,2.8-9.1,1.8c-3-0.9-4.1-3.4-4.5-6.3c-0.7-6.4,0-12.6,2.3-18.6c0.8-2.1,2.2-3.9,4.1-5.2
	c5.5-3.7,12-1,13,5.4c0.1,0.8,0.1,1.6,0.2,2.3C152.2,44.4,156.3,44.4,160.8,44.4z"/>
<path d="M29.7,77.9C23.4,81.6,17,82,10.5,78.7c-4.9-2.5-7.5-6.8-9-11.9c-2.3-7.5-1.8-15.1,0.1-22.6C3,38.6,5.3,33.4,9,28.9
	c6.3-7.6,17.7-10,25.8-5.6c0.7,0.4,1.3,0.8,2,1.2c0.6-3.2,1.2-6.3,1.8-9.4c0.8-4.2,1.6-8.5,2.4-12.7c0.3-1.8,1.1-2.5,3-2.5
	c4.2,0,8.4,0,12.6,0c2.3,0,3.3,1.2,2.9,3.5c-2.4,14.1-4.9,28.2-7.3,42.3c-1.8,10.4-3.6,20.9-5.4,31.3c-0.4,2.3-1.1,2.9-3.5,2.9
	c-3.6,0-7.1,0-10.7,0C31.2,80,30.2,79.4,29.7,77.9z M44.4,77.5c4.3-25,8.7-50,13-75c-4.7,0-9.3,0-13.9,0c-1.7,8.9-3.4,17.8-5.1,26.7
	c-0.2-0.2-0.4-0.3-0.5-0.5c-4-4.6-9.2-5.9-15-5c-6.1,0.9-10.8,4.2-14,9.3c-6,9.6-7.8,20.2-5.6,31.3c0.9,4.4,2.9,8.4,6.6,11.2
	c5.9,4.4,14.6,3.9,20.5-1.2c0.7-0.6,1.4-1.3,2.4-2.2c-0.3,1.9-0.5,3.6-0.7,5.3C36.2,77.5,40.2,77.5,44.4,77.5z"/>
<path d="M463.9,77.7c-0.5,2.8-1.1,5.5-1.6,8.3c-0.8,4-1.5,8-2.3,12c-0.3,1.6-1.2,2.4-2.8,2.4c-4.3,0-8.6,0-13,0c-2,0-3-1.3-2.6-3.4
	c2.8-16.5,5.7-33,8.5-49.5c1.3-7.6,2.6-15.3,4-22.9c0.3-1.7,1.1-2.4,2.9-2.5c3.9-0.1,7.8,0,11.8,0c1.2,0,2.2,0.6,2.7,1.4
	c2.5-0.8,4.9-1.8,7.3-2.1c10.1-1.3,18.1,3.8,20.9,14.1c2.2,7.9,1.5,15.8-0.6,23.7c-1.7,6.3-4.5,12-9.5,16.4
	c-6.7,6-17.6,7.2-25.1,2.2C464.3,77.8,464.2,77.8,463.9,77.7z M469.2,24.5c-4.1,0-8.1,0-12.2,0c-0.2,0-0.6,0.5-0.7,0.8
	c-1.6,9.2-3.2,18.4-4.8,27.6c-2,11.8-4.1,23.7-6.1,35.5c-0.5,3.1-1.1,6.2-1.6,9.3c4.7,0,9.3,0,13.8,0c1.6-8.3,3.2-16.5,4.8-24.8
	c0.3,0.2,0.4,0.3,0.5,0.4c4.5,4.9,10.1,5.9,16.2,4.7c6.3-1.2,10.7-5.2,13.8-10.6c4-7,5.5-14.6,5.5-22.6c0-3.9-0.5-7.7-2-11.2
	c-2-4.7-5.2-8.2-10.4-9.5c-6.1-1.5-11.6-0.3-16.2,4c-0.4,0.4-0.9,0.8-1.5,1.4C468.6,27.8,468.9,26.2,469.2,24.5z"/>
<path d="M338.5,39c-0.9,1.2-2.1,1.4-3.6,1.2c-2.1-0.3-4.3-0.3-6.4-0.1c-2.5,0.3-4.5,1.7-6,3.6c-0.5,0.6-0.6,1.6-0.7,2.4
	c-1.9,10.5-3.7,20.9-5.6,31.4c-0.3,1.9-1,2.5-2.9,2.5c-4.3,0-8.6,0-12.8,0c-2.1,0-3.1-1.2-2.7-3.3c2.3-13.1,4.5-26.1,6.8-39.2
	c0.7-4.3,1.5-8.6,2.3-12.9c0.3-1.7,1.1-2.4,2.9-2.5c4-0.1,8-0.1,12,0c1.2,0,2.2,0.4,2.7,1.7c2.1-1.4,4.5-2.2,6.9-2.6
	c2.6-0.4,5,0.1,7.5,0.8c1.1,0.3,1.7,1.6,1.5,2.9C339.6,29.7,339,34.3,338.5,39L338.5,39z M299.9,77.6c4.5,0,8.9,0,13.2,0
	c0.3,0,0.7-0.5,0.7-0.8c1.9-10.5,3.7-21,5.6-31.5c0.2-1.2,0.3-2.3,1.2-3.3c3.3-3.6,7.4-4.8,12.1-4.4c1.1,0.1,2.2,0.2,3.4,0.4
	c0.6-4.6,1.2-9.1,1.8-13.7c-7.2-2-12.7,0.3-17,6.5c0.4-2.3,0.8-4.2,1.2-6.2c-4.3,0-8.6,0-13,0C306.1,42.2,303,59.8,299.9,77.6z"/>
<path d="M338.4,39c1.6-3.4,3.5-6.6,6.3-9.3c8.4-8.2,18.4-10.4,29.4-6.6c7.7,2.7,12.3,8.6,13.9,16.5c2.7,13.3,0,25.3-10.3,34.5
	c-8.3,7.4-18.2,8.8-28.6,4.7c-7.2-2.8-11.1-8.7-13-16.1c-2-7.8-0.7-15.3,1.9-22.7C338.2,39.7,338.3,39.3,338.4,39
	C338.5,39,338.4,39,338.4,39z M386.7,46.5c-0.2-1.3-0.3-3.5-0.7-5.6c-1.8-8.1-6.2-14.1-14.5-16.3c-9.5-2.5-18.3-0.5-25.1,6.9
	c-7.8,8.5-10.1,18.7-8,29.9c1.5,8.2,6.2,14.1,14.5,16.2c9.6,2.4,18.2,0.3,25.2-7C384.1,64.2,386.4,56.2,386.7,46.5z"/>
<path class="st0" d="M177.1,2.5c4.7,0,9.2,0,13.9,0c-2.4,13.5-4.7,26.9-7.1,40.5c0.3-0.2,0.5-0.4,0.7-0.5c5.6-5.7,11.3-11.4,16.9-17
	c0.3-0.3,0.8-0.6,1.2-0.6c5.6,0,11.3,0,17.2,0c-7.8,7.7-15.4,15.2-23.1,22.7c4.9,10,9.7,20,14.7,30c-0.4,0-0.7,0.1-1,0.1
	c-4.4,0-8.7,0-13.1,0c-0.8,0-1.2-0.3-1.5-1c-2.8-6.2-5.5-12.5-8.3-18.7c-0.2-0.4-0.4-0.8-0.6-1.3c-2.1,1.8-4.1,3.5-6,5.3
	c-0.3,0.2-0.4,0.7-0.4,1.1c-0.8,4.6-1.6,9.2-2.4,13.8c0,0.2-0.1,0.5-0.2,0.8c-4.6,0-9.1,0-13.8,0C168.4,52.5,172.7,27.5,177.1,2.5z"
	/>
<path class="st0" d="M241.9,90c2.5-3.1,4.7-5.8,7-8.6c4.6,5.5,10.4,7.4,17.1,5.1c6.1-2.1,8.3-7.2,9.4-13.2c-0.2,0.2-0.4,0.3-0.6,0.4
	c-7.9,7.7-23.4,7.1-28.1-7.8c-1.9-5.9-1.7-11.8-0.7-17.8c1.1-6.2,3.3-12,7.4-16.9c6.5-8,16.2-9.1,23.1-6.5c2.5,0.9,4.4,2.5,6.1,4.8
	c0.6-1.7,1.2-3.3,1.8-4.9c4.2,0,8.4,0,12.7,0c-0.4,2.4-0.8,4.6-1.1,6.9c-2,11.7-3.9,23.3-5.9,35c-0.8,4.4-1.3,8.9-2.4,13.2
	c-2.6,10.2-11.4,17.4-21.8,18.6c-6.8,0.7-13.2-0.1-18.9-4C245.3,93,243.7,91.5,241.9,90z M259.3,56.1c0,2.4,0.2,5,1.4,7.3
	c1.1,2.1,2.8,3.4,5.1,3.7c4.2,0.5,7.5-1.2,10.2-4.1c0.4-0.4,0.6-0.9,0.7-1.4c1.2-6.6,2.3-13.2,3.7-19.8c0.5-2.5-0.5-4-2.2-5.3
	c-0.7-0.5-1.4-0.9-2.2-1.1c-3.5-1-6.7-0.6-9.6,1.6c-2.2,1.7-3.7,3.9-4.8,6.3C259.8,47.4,259.4,51.6,259.3,56.1z"/>
<path class="st0" d="M65.7,24.8c4.7,0,9.2,0,13.8,0C79,27.9,78.5,31,78,34c-1.4,8.2-2.8,16.4-4.2,24.7c-0.2,1.6-0.1,3.3,0.2,4.9
	c0.4,2,1.8,3.1,3.7,3.4c4.7,0.7,8.5-0.9,11.5-4.4c0.4-0.4,0.5-1.1,0.6-1.7c2.1-12,4.2-24,6.3-36c0,0,0-0.1,0.1-0.2
	c4.6,0,9.2,0,13.9,0c-3.1,17.5-6.1,35-9.2,52.6c-4.3,0-8.5,0-12.9,0c0.3-1.6,0.6-3.2,0.9-5.1c-0.5,0.5-0.9,0.8-1.2,1.1
	c-5.1,4.7-11.1,6-17.7,4.5c-5.4-1.3-9.2-6.1-10.1-12.2c-0.6-4,0.1-8,0.7-11.9C62.4,44.2,64,34.5,65.7,24.8z"/>
<path class="st0" d="M431.3,24.8c4.6,0,9.2,0,13.9,0c-3.1,17.6-6.1,35.1-9.2,52.7c-4.3,0-8.5,0-12.9,0c0.3-1.6,0.6-3.2,0.9-5.2
	c-0.6,0.6-0.9,0.9-1.2,1.2c-5.1,4.7-11.1,6.1-17.7,4.4c-6.1-1.6-8.9-6.2-10-12.1c-0.7-4.1,0-8,0.7-12c1.6-9.5,3.2-19,4.8-28.5
	c0-0.2,0.1-0.3,0.1-0.5c4.6,0,9.1,0,13.8,0c-0.4,2.2-0.7,4.4-1.1,6.6c-1.5,9.1-3.1,18.3-4.6,27.4c-0.3,1.6-0.1,3.4,0.2,5
	c0.4,1.8,1.7,2.9,3.5,3.2c4.7,0.8,8.6-0.8,11.8-4.4c0.3-0.3,0.4-0.9,0.5-1.3c2.1-12,4.2-23.9,6.3-35.9
	C431.2,25.2,431.2,25,431.3,24.8z"/>
<path class="st0" d="M160.8,44.4c-4.4,0-8.6,0-12.9,0c-0.1-0.8-0.1-1.6-0.2-2.3c-1-6.4-7.5-9.1-13-5.4c-1.9,1.3-3.2,3.1-4.1,5.2
	c-2.4,6-3,12.2-2.3,18.6c0.3,2.8,1.5,5.3,4.5,6.3c3.3,1.1,6.4,0.5,9.1-1.8c1.7-1.5,2.6-3.4,3.2-5.6c4.3,0,8.5,0,13.1,0
	c-0.4,1.7-0.6,3.5-1.2,5.1c-2.8,7.6-8.6,11.8-16.2,13.6c-3.7,0.9-7.4,0.8-11.1-0.1c-7.1-1.8-12-6.3-13.9-13.2
	c-3.3-11.6-1.5-22.7,6.2-32.2c6.6-8.1,15.5-10.3,25.4-7.8c7.6,2,11.8,7.5,13.1,15.1C160.6,41.2,160.6,42.8,160.8,44.4z"/>
<path class="st0" d="M44.4,77.5c-4.2,0-8.3,0-12.4,0c0.2-1.7,0.5-3.4,0.7-5.3c-0.9,0.9-1.6,1.6-2.4,2.2c-5.9,5.1-14.6,5.6-20.5,1.2
	c-3.8-2.8-5.7-6.8-6.6-11.2C1.1,53.2,2.9,42.7,8.9,33.1c3.2-5.1,7.8-8.5,14-9.3c5.8-0.8,11,0.5,15,5c0.1,0.1,0.3,0.2,0.5,0.5
	c1.7-9,3.4-17.8,5.1-26.7c4.6,0,9.2,0,13.9,0C53.1,27.5,48.8,52.4,44.4,77.5z M16.2,56.5c-0.1,0-0.2,0-0.3,0.1
	c0.5,2.2,0.8,4.5,1.5,6.7c0.7,2.2,2.4,3.4,4.7,3.7c4.8,0.8,8.6-2,11-5.2c0.2-0.2,0.2-0.6,0.3-0.9c1.2-6.6,2.3-13.3,3.5-19.9
	c0.1-0.5,0-1-0.2-1.5c-1.7-3.8-5.8-5.5-10.2-4.3c-3.9,1.1-6.2,3.9-7.7,7.5C17,47.1,16.3,51.8,16.2,56.5z"/>
<path class="st0" d="M469.2,24.5c-0.3,1.7-0.5,3.2-0.8,5.1c0.6-0.6,1-1,1.5-1.4c4.7-4.3,10.1-5.6,16.2-4c5.1,1.3,8.4,4.8,10.4,9.5
	c1.5,3.6,2,7.4,2,11.2c0,8-1.5,15.6-5.5,22.6c-3.1,5.4-7.5,9.4-13.8,10.6c-6.1,1.2-11.8,0.2-16.2-4.7c-0.1-0.1-0.2-0.2-0.5-0.4
	c-1.6,8.3-3.2,16.5-4.8,24.8c-4.6,0-9.2,0-13.8,0c0.5-3.1,1.1-6.2,1.6-9.3c2-11.8,4.1-23.7,6.1-35.5c1.6-9.2,3.2-18.4,4.8-27.6
	c0.1-0.3,0.5-0.8,0.7-0.8C461.1,24.5,465.1,24.5,469.2,24.5z M484.7,45.5c-0.1-1.2-0.2-2.5-0.4-3.7c-0.6-4-2.8-6.3-6.3-6.6
	c-4.3-0.4-7.6,1.5-10.1,4.8c-0.2,0.3-0.3,0.7-0.4,1c-1.2,6.6-2.4,13.2-3.6,19.8c-0.2,1.1,0,2.1,0.6,3c1.9,2.9,5.9,4.2,9.9,3.1
	c3.8-1,6-3.8,7.5-7.2C483.9,55.1,484.5,50.3,484.7,45.5z"/>
<path class="st0" d="M299.9,77.6c3.1-17.8,6.1-35.3,9.2-53c4.4,0,8.7,0,13,0c-0.4,2-0.7,3.9-1.2,6.2c4.4-6.2,9.8-8.6,17-6.5
	c-0.6,4.6-1.2,9.1-1.8,13.7c-1.2-0.1-2.3-0.3-3.4-0.4c-4.7-0.4-8.8,0.8-12.1,4.4c-0.9,1-1,2.1-1.2,3.3c-1.9,10.5-3.7,21-5.6,31.5
	c-0.1,0.3-0.5,0.8-0.7,0.8C308.8,77.6,304.5,77.6,299.9,77.6z"/>
<path class="st0" d="M386.7,46.5c-0.3,9.7-2.5,17.7-8.8,24.2c-7,7.2-15.6,9.4-25.2,7c-8.3-2.1-13-8.1-14.5-16.2
	c-2.1-11.1,0.2-21.4,8-29.9c6.8-7.4,15.6-9.4,25.1-6.9c8.3,2.1,12.7,8.2,14.5,16.3C386.4,43.1,386.5,45.3,386.7,46.5z M372.8,46.6
	c-0.1-0.7-0.1-1.9-0.3-3.2c-0.8-6.5-5.7-9.8-11.7-7.8c-3.5,1.2-5.6,3.9-7.1,7.1c-2.5,5.6-3,11.4-2.1,17.4c0.8,5.2,4.5,7.7,9.7,7
	c4.1-0.6,6.6-3.2,8.4-6.6C372.1,56.3,372.6,51.8,372.8,46.6z"/>
<path d="M259.3,56.1c0.1-4.5,0.5-8.8,2.4-12.8c1.1-2.5,2.6-4.7,4.8-6.3c2.9-2.2,6.2-2.7,9.6-1.6c0.8,0.2,1.6,0.6,2.2,1.1
	c1.7,1.3,2.7,2.8,2.2,5.3c-1.4,6.6-2.4,13.2-3.7,19.8c-0.1,0.5-0.4,1.1-0.7,1.4c-2.8,2.9-6.1,4.6-10.2,4.1c-2.4-0.3-4-1.6-5.1-3.7
	C259.5,61.1,259.3,58.5,259.3,56.1z M261.6,55.9c0.1,1.3,0.1,2.6,0.3,3.9c0.6,3.8,3.1,5.7,6.8,4.9c1.6-0.4,3.1-1.4,4.6-2.2
	c1-0.6,1.4-1.6,1.6-2.8c1-6,2.1-12,3.2-17.9c0.3-1.9,0-2.7-1.6-3.6c-0.5-0.3-1.2-0.5-1.8-0.7c-3.9-0.9-7.4,0.9-9.8,4.8
	C262.3,46.4,261.7,51.1,261.6,55.9z"/>
<path d="M16.2,56.5c0.1-4.7,0.8-9.4,2.6-13.8c1.5-3.6,3.7-6.4,7.7-7.5c4.4-1.2,8.5,0.5,10.2,4.3c0.2,0.4,0.3,1,0.2,1.5
	c-1.1,6.7-2.3,13.3-3.5,19.9c-0.1,0.3-0.1,0.7-0.3,0.9c-2.4,3.2-6.2,6-11,5.2c-2.3-0.4-4-1.6-4.7-3.7c-0.7-2.2-1-4.5-1.5-6.7
	C16,56.6,16.1,56.6,16.2,56.5z M18.5,56.9c0.1,0.8,0.1,2.1,0.3,3.4c0.4,3.3,2.1,4.7,5.4,4.5c2.5-0.1,4.4-1.4,5.9-3.2
	c0.5-0.6,0.9-1.3,1-2.1c1.1-5.8,2-11.6,3.1-17.4c0.3-1.4-0.1-2.5-1.1-3.3c-1-0.7-2.2-1.3-3.4-1.5c-3.7-0.4-6.6,1.5-8.5,5.4
	C19.3,47.1,18.7,51.7,18.5,56.9z"/>
<path d="M484.7,45.5c-0.2,4.9-0.8,9.6-2.8,14.2c-1.5,3.4-3.7,6.2-7.5,7.2c-3.9,1.1-8-0.2-9.9-3.1c-0.6-0.9-0.9-1.9-0.6-3
	c1.2-6.6,2.4-13.2,3.6-19.8c0.1-0.3,0.1-0.7,0.4-1c2.5-3.3,5.9-5.2,10.1-4.8c3.5,0.3,5.7,2.7,6.3,6.6
	C484.6,43,484.6,44.2,484.7,45.5z M482.3,45.1c0-1.5,0-3.5-1-5.4c-0.8-1.4-1.9-2.2-3.7-2.3c-2.8-0.1-5.1,1-7,3
	c-0.4,0.4-0.7,1.1-0.8,1.7c-1.1,6.1-2.2,12.2-3.4,18.2c-0.3,1.4,0.1,2.4,1.2,3.1c0.7,0.5,1.4,0.9,2.2,1.1c3.9,0.9,7.3-0.7,9.3-4.4
	C481.5,55.6,482.1,50.7,482.3,45.1z"/>
<path d="M372.8,46.6c-0.2,5.2-0.7,9.7-2.9,13.8c-1.8,3.4-4.3,6-8.4,6.6c-5.2,0.7-9-1.8-9.7-7c-0.9-5.9-0.5-11.8,2.1-17.4
	c1.5-3.2,3.6-5.9,7.1-7.1c5.9-2,10.9,1.3,11.7,7.8C372.7,44.7,372.8,45.9,372.8,46.6z M370.4,47.2c0-2.3-0.1-4.6-1.2-6.8
	c-1-1.9-2.5-2.9-4.7-3c-2.9-0.1-5.2,1.1-6.8,3.4c-4.3,6-4.7,12.8-3.4,19.7c0.5,3,2.5,4.2,5.3,4.3c3.7,0.1,6.1-1.8,7.8-4.8
	C369.8,56.1,370.3,51.7,370.4,47.2z"/>
</svg>
