<?xml version="1.0" encoding="utf-8"?>
<svg version="1.1"
	 id="Layer_1" xmlns:dc="http://purl.org/dc/elements/1.1/" xmlns:cc="http://creativecommons.org/ns#" xmlns:rdf="http://www.w3.org/1999/02/22-rdf-syntax-ns#" xmlns:svg="http://www.w3.org/2000/svg"
	 xmlns="http://www.w3.org/2000/svg" xmlns:xlink="http://www.w3.org/1999/xlink" x="0px" y="0px" viewBox="-193 345.7 223.9 102.3"
	 style="enable-background:new -193 345.7 223.9 102.3;" xml:space="preserve">
<style type="text/css">
	.st0{fill:#FFFFFF;}
</style>
<path id="Gears" class="st0" d="M16.9,375.9c0,9-7.3,16.3-16.3,16.3c-9,0-16.3-7.3-16.3-16.3s7.3-16.3,16.3-16.3
	C9.6,359.7,16.9,366.9,16.9,375.9z M0.6,345.7c-16.7,0-30.2,13.4-30.3,30.1l-18.9,27.1c-0.8-0.1-1.6-0.1-2.3-0.1
	c-4.2,0-8.2,1.2-11.6,3.2l-85.6-34.4c-2.2-10.2-11.3-17.8-22.1-17.8c-12.5,0-22.7,10.2-22.7,22.7s10.2,22.7,22.7,22.7
	c4.2,0,8.2-1.2,11.6-3.2l85.6,34.4C-70.9,440.3-61.9,448-51,448c11.7,0,21.4-9,22.5-20.4l29.1-21.3c16.8,0,30.3-13.6,30.3-30.3
	C30.9,359.2,17.3,345.7,0.6,345.7z M0.6,355.7c11.2,0,20.3,9.1,20.3,20.3c0,11.2-9.1,20.3-20.3,20.3s-20.3-9.1-20.3-20.3
	C-19.8,364.8-10.7,355.7,0.6,355.7z M-170.3,359.6c6.4,0,11.9,3.6,14.7,8.8l-8.3-3.3v0c-6.7-2.4-14.1,0.9-16.8,7.5s0.4,14.1,6.9,17
	v0l7,2.8c-1.2,0.3-2.4,0.4-3.6,0.4c-9.2,0-16.7-7.4-16.7-16.7S-179.6,359.6-170.3,359.6z M-51,408.7c9.2,0,16.7,7.4,16.7,16.7
	c0,9.2-7.4,16.7-16.7,16.7c-6.4,0-12-3.6-14.8-8.9c2.7,1.1,5.5,2.2,8.2,3.3c6.8,2.7,14.5-0.6,17.3-7.3c2.7-6.8-0.6-14.5-7.4-17.2
	l-6.9-2.8C-53.5,408.8-52.3,408.7-51,408.7z"/>
</svg>
