<?xml version="1.0" encoding="utf-8"?>
<!-- Generator: Adobe Illustrator 19.0.0, SVG Export Plug-In . SVG Version: 6.00 Build 0)  -->
<svg version="1.1" id="Layer_1" xmlns="http://www.w3.org/2000/svg" xmlns:xlink="http://www.w3.org/1999/xlink" x="0px" y="0px"
	 viewBox="-110 670 534.3 123.3" style="enable-background:new -110 670 534.3 123.3;" xml:space="preserve">
<style type="text/css">
	.st0{fill:#FFFFFF;}
	.st1{fill:#ED4250;}
	.st2{fill:#DBD2D2;}
	.st3{fill:#D22A3F;}
	.st4{fill:#EEE5E5;}
</style>
<path d="M76.1,752.9c-1.1,0.9-2,1.7-2.9,2.6c-0.3,0.3-0.5,0.7-0.5,1.1c-0.8,4.4-1.6,8.9-2.4,13.3c-0.3,1.9-1,2.4-2.9,2.4
	c-4.2,0-8.5,0-12.7,0c-2.2,0-3.2-1.2-2.8-3.4c4.1-23.5,8.1-47.1,12.2-70.6c0.2-1.2,0.4-2.4,0.7-3.5c0.3-1.5,1.1-2.3,2.7-2.3
	c4.4,0,8.7-0.1,13.1,0c2.1,0,3,1.4,2.6,3.5c-1.9,10.6-3.7,21.2-5.5,31.8c0,0.1,0,0.2,0,0.5c0.4-0.4,0.7-0.7,1-1
	c3.7-3.7,7.4-7.4,11.1-11.1c1-1,2-1.4,3.4-1.4c5.2,0,10.5,0,15.7,0.1c0.9,0,1.9,0.4,2.6,0.9c1.1,0.9,0.8,2.4-0.4,3.7
	c-4.4,4.4-8.9,8.7-13.4,13.1c-2.4,2.4-4.8,4.8-7.3,7.1c-0.6,0.6-0.7,1-0.3,1.7c4.4,8.9,8.7,17.8,13.1,26.7c1.2,2.5-0.1,4.5-2.7,4.4
	c-4.5-0.1-9-0.1-13.4,0c-1.6,0-2.6-0.5-3.2-2.1C81.4,764.5,78.8,758.8,76.1,752.9z M67.1,694.9c-4.3,25-8.6,50-13,75
	c4.7,0,9.3,0,13.8,0c0.1-0.3,0.2-0.5,0.2-0.8c0.8-4.6,1.6-9.2,2.4-13.8c0.1-0.4,0.2-0.8,0.4-1.1c2-1.8,4-3.5,6-5.3
	c0.2,0.5,0.4,0.9,0.6,1.3c2.8,6.2,5.6,12.5,8.3,18.7c0.3,0.7,0.7,1,1.5,1c4.4,0,8.7,0,13.1,0c0.3,0,0.6,0,1-0.1
	c-4.9-10.1-9.8-20.1-14.7-30c7.7-7.5,15.3-15,23.1-22.7c-6,0-11.6,0-17.2,0c-0.4,0-0.9,0.3-1.2,0.6c-5.7,5.7-11.3,11.3-16.9,17
	c-0.2,0.2-0.4,0.3-0.7,0.5c2.4-13.6,4.7-27,7.1-40.5C76.3,694.9,71.8,694.9,67.1,694.9z"/>
<path d="M161,771.9c-2.3,0.5-4.6,1.2-6.9,1.3c-8.8,0.4-15.5-4-18.8-12.3c-2.3-5.9-2.7-12.1-1.9-18.3c0.9-6.7,2.8-12.9,6.7-18.5
	c5-7.1,11.7-10.8,20.4-10.6c3.8,0.1,6.7,1.1,11.2,3.8c0.1,0,0.2-0.1,0.2-0.1c1-2.4,1.4-2.7,4.1-2.7c3.4,0,6.7,0,10.1,0
	c2.8,0,3.7,1.1,3.2,3.9c-2.9,17.1-5.8,34.3-8.7,51.4c-2.1,12.3-11,20.9-23.3,22.9c-7.8,1.3-15.2,0.2-21.9-4.3
	c-1.8-1.2-3.3-2.7-4.8-4.3c-1.3-1.3-1.2-2.5,0-4c2-2.5,4-5,6.1-7.4c1.4-1.7,3.1-1.7,4.5,0c4.4,5.4,11.3,5.5,15.4,3.4
	C158.5,775.1,160,773.7,161,771.9z M131.9,782.4c1.8,1.5,3.3,3,5.1,4.2c5.8,3.8,12.2,4.7,18.9,4c10.4-1.1,19.2-8.4,21.8-18.6
	c1.1-4.3,1.7-8.8,2.4-13.2c2-11.6,3.9-23.3,5.9-35c0.4-2.3,0.8-4.5,1.1-6.9c-4.3,0-8.5,0-12.7,0c-0.6,1.6-1.2,3.2-1.8,4.9
	c-1.7-2.2-3.7-3.8-6.1-4.8c-6.9-2.6-16.6-1.5-23.1,6.5c-4.1,5-6.3,10.7-7.4,16.9c-1,6-1.1,11.9,0.7,17.8
	c4.7,14.8,20.1,15.5,28.1,7.8c0.2-0.2,0.4-0.3,0.6-0.4c-1.1,6-3.3,11.1-9.4,13.2c-6.7,2.3-12.5,0.3-17.1-5.1
	C136.7,776.6,134.4,779.3,131.9,782.4z"/>
<path d="M-24.2,770.4c-3.4,1.9-7,2.9-10.8,2.9c-9.1,0-15.3-5-17.1-14c-0.8-4-0.4-8,0.3-12c1.7-9.8,3.3-19.6,4.9-29.4
	c0.4-2.5,1.1-3.1,3.6-3.1c3.8,0,7.7,0,11.5,0c2.9,0,3.8,1,3.3,3.8c-1.6,10.6-3.5,21.2-5.2,31.8c-0.2,1.5-0.3,3-0.2,4.5
	c0.1,1.4,1,2.1,2.4,2.2c3.3,0.3,6.1-0.7,8.4-3.1c0.4-0.4,0.6-0.9,0.7-1.5c2-11.6,4.1-23.1,6.1-34.7c0.5-2.6,1.1-3.2,3.8-3.2
	c3.9,0,7.8,0,11.6,0c2.7,0,3.6,1.2,3.2,3.8c-2.6,15.1-5.2,30.1-7.9,45.2c-0.4,2.1-0.7,4.2-1.2,6.4c-0.3,1.6-1,2.2-2.6,2.2
	c-4.1,0-8.2,0-12.4,0C-22.9,772.3-23.8,771.8-24.2,770.4z M-44.3,717.2c-1.6,9.8-3.2,19.4-4.9,29c-0.7,3.9-1.3,7.9-0.7,11.9
	c0.9,6.1,4.7,10.9,10.1,12.2c6.6,1.6,12.6,0.2,17.7-4.5c0.3-0.3,0.6-0.6,1.2-1.1c-0.3,1.9-0.6,3.5-0.9,5.1c4.4,0,8.6,0,12.9,0
	c3.1-17.6,6.1-35.1,9.2-52.6c-4.7,0-9.3,0-13.9,0c-0.1,0.1-0.1,0.2-0.1,0.2c-2.1,12-4.2,24-6.3,36c-0.1,0.6-0.2,1.2-0.6,1.7
	c-3.1,3.5-6.9,5.1-11.5,4.4c-2-0.3-3.4-1.5-3.7-3.4c-0.3-1.6-0.4-3.3-0.2-4.9c1.3-8.2,2.8-16.5,4.2-24.7c0.5-3.1,1-6.1,1.5-9.3
	C-35.1,717.2-39.7,717.2-44.3,717.2z"/>
<path d="M310.8,770.4c-3.4,1.9-7,2.9-10.8,2.9c-9.1,0-15.3-5-17.1-14c-0.8-4-0.4-8,0.3-12c1.7-9.8,3.3-19.6,4.9-29.4
	c0.4-2.5,1.1-3.1,3.6-3.1c3.8,0,7.7,0,11.5,0c2.9,0,3.8,1,3.3,3.8c-1.8,10.6-3.6,21.3-5.4,31.9c-0.2,1.4-0.3,2.9-0.2,4.4
	c0.1,1.5,1,2.2,2.4,2.3c3.3,0.3,6.1-0.7,8.4-3.1c0.4-0.4,0.6-0.9,0.7-1.5c2-11.6,4.1-23.1,6.1-34.7c0.5-2.6,1.1-3.2,3.8-3.2
	c3.9,0,7.8,0,11.6,0c2.7,0,3.6,1.2,3.2,3.8c-2.6,15.1-5.2,30.1-7.9,45.2c-0.4,2.2-0.8,4.3-1.2,6.5c-0.3,1.4-1,2.1-2.5,2.1
	c-4.2,0-8.4,0-12.6,0C312,772.3,311.2,771.7,310.8,770.4z M321.3,717.2c-0.1,0.2-0.1,0.4-0.1,0.6c-2.1,12-4.2,23.9-6.3,35.9
	c-0.1,0.5-0.2,1-0.5,1.3c-3.1,3.6-7,5.2-11.8,4.4c-1.8-0.3-3.2-1.4-3.5-3.2c-0.3-1.6-0.5-3.4-0.2-5c1.4-9.1,3-18.3,4.6-27.4
	c0.4-2.2,0.7-4.4,1.1-6.6c-4.7,0-9.2,0-13.8,0c0,0.2-0.1,0.4-0.1,0.5c-1.6,9.5-3.2,19-4.8,28.5c-0.7,4-1.4,8-0.7,12
	c1.1,5.9,3.9,10.5,10,12.1c6.6,1.7,12.6,0.3,17.7-4.4c0.3-0.3,0.7-0.6,1.2-1.2c-0.3,2-0.6,3.5-0.9,5.2c4.4,0,8.6,0,12.9,0
	c3.1-17.6,6.1-35.1,9.2-52.7C330.5,717.2,325.9,717.2,321.3,717.2z"/>
<path d="M44.2,739.2c-1.8,0-3.5,0-5.3,0c-2.6,0-3.3-0.6-3.5-3.2c-0.1-0.7-0.1-1.4-0.2-2c-0.9-3.8-3.8-4.9-7.8-3.8
	c-1.8,0.5-3,1.8-3.9,3.4c-1.7,2.8-2.5,6-2.8,9.2c-0.3,3-0.4,6-0.3,9c0,2,0.6,4.1,2.7,5c2.2,0.9,4.5,0.6,6.5-0.8
	c1.5-1.1,2.4-2.7,2.9-4.4c0.5-1.7,1.2-2.2,2.9-2.2c3.9,0,7.8,0,11.8,0c2.2,0,3.2,1,3,3.2c-0.7,7.2-4.2,12.8-10.3,16.6
	c-7.1,4.4-14.8,5.5-22.8,2.9c-7.8-2.5-12.5-8.2-14.2-16.1c-2.6-12.2-0.5-23.5,7.7-33.2c7-8.4,20.1-11.4,30.1-7
	c7.3,3.2,11,9.1,12.2,16.8c0.2,1.3,0.3,2.5,0.3,3.8c0,2.1-0.8,2.9-2.9,3C48.2,739.3,46.2,739.2,44.2,739.2z M50.8,736.8
	c-0.1-1.6-0.2-3.2-0.4-4.7c-1.3-7.6-5.5-13.1-13.1-15.1c-9.9-2.6-18.8-0.3-25.4,7.8c-7.7,9.5-9.5,20.6-6.2,32.2
	c1.9,6.9,6.8,11.5,13.9,13.2c3.7,0.9,7.4,1,11.1,0.1c7.7-1.8,13.5-5.9,16.2-13.6c0.6-1.6,0.8-3.4,1.2-5.1c-4.6,0-8.9,0-13.1,0
	c-0.6,2.2-1.5,4.2-3.2,5.6c-2.7,2.3-5.8,2.8-9.1,1.8c-3-0.9-4.1-3.4-4.5-6.3c-0.7-6.4,0-12.6,2.3-18.6c0.8-2.1,2.2-3.9,4.1-5.2
	c5.5-3.7,12-1,13,5.4c0.1,0.8,0.1,1.6,0.2,2.3C42.2,736.8,46.3,736.8,50.8,736.8z"/>
<path d="M-80.3,770.3c-6.3,3.7-12.7,4.1-19.2,0.8c-4.9-2.5-7.5-6.8-9-11.9c-2.3-7.5-1.8-15.1,0.1-22.6c1.4-5.6,3.7-10.8,7.4-15.3
	c6.3-7.6,17.7-10,25.8-5.6c0.7,0.4,1.3,0.8,2,1.2c0.6-3.2,1.2-6.3,1.8-9.4c0.8-4.2,1.6-8.5,2.4-12.7c0.3-1.8,1.1-2.5,3-2.5
	c4.2,0,8.4,0,12.6,0c2.3,0,3.3,1.2,2.9,3.5c-2.4,14.1-4.9,28.2-7.3,42.3c-1.8,10.4-3.6,20.9-5.4,31.3c-0.4,2.3-1.1,2.9-3.5,2.9
	c-3.6,0-7.1,0-10.7,0C-78.8,772.4-79.8,771.8-80.3,770.3z M-65.6,769.9c4.3-25,8.7-50,13-75c-4.7,0-9.3,0-13.9,0
	c-1.7,8.9-3.4,17.8-5.1,26.7c-0.2-0.2-0.4-0.3-0.5-0.5c-4-4.6-9.2-5.9-15-5c-6.1,0.9-10.8,4.2-14,9.3c-6,9.6-7.8,20.2-5.6,31.3
	c0.9,4.4,2.9,8.4,6.6,11.2c5.9,4.4,14.6,3.9,20.5-1.2c0.7-0.6,1.4-1.3,2.4-2.2c-0.3,1.9-0.5,3.6-0.7,5.3
	C-73.8,769.9-69.8,769.9-65.6,769.9z"/>
<path d="M353.9,770.1c-0.5,2.8-1.1,5.5-1.6,8.3c-0.8,4-1.5,8-2.3,12c-0.3,1.6-1.2,2.4-2.8,2.4c-4.3,0-8.6,0-13,0c-2,0-3-1.3-2.6-3.4
	c2.8-16.5,5.7-33,8.5-49.5c1.3-7.6,2.6-15.3,4-22.9c0.3-1.7,1.1-2.4,2.9-2.5c3.9-0.1,7.8,0,11.8,0c1.2,0,2.2,0.6,2.7,1.4
	c2.5-0.8,4.9-1.8,7.3-2.1c10.1-1.3,18.1,3.8,20.9,14.1c2.2,7.9,1.5,15.8-0.6,23.7c-1.7,6.3-4.5,12-9.5,16.4
	c-6.7,6-17.6,7.2-25.1,2.2C354.3,770.2,354.2,770.2,353.9,770.1z M359.2,716.9c-4.1,0-8.1,0-12.2,0c-0.2,0-0.6,0.5-0.7,0.8
	c-1.6,9.2-3.2,18.4-4.8,27.6c-2,11.8-4.1,23.7-6.1,35.5c-0.5,3.1-1.1,6.2-1.6,9.3c4.7,0,9.3,0,13.8,0c1.6-8.3,3.2-16.5,4.8-24.8
	c0.3,0.2,0.4,0.3,0.5,0.4c4.5,4.9,10.1,5.9,16.2,4.7c6.3-1.2,10.7-5.2,13.8-10.6c4-7,5.5-14.6,5.5-22.6c0-3.9-0.5-7.7-2-11.2
	c-2-4.7-5.2-8.2-10.4-9.5c-6.1-1.5-11.6-0.3-16.2,4c-0.4,0.4-0.9,0.8-1.5,1.4C358.6,720.2,358.9,718.6,359.2,716.9z"/>
<path d="M228.5,731.4c-0.9,1.2-2.1,1.4-3.6,1.2c-2.1-0.3-4.3-0.3-6.4-0.1c-2.5,0.3-4.5,1.7-6,3.6c-0.5,0.6-0.6,1.6-0.7,2.4
	c-1.9,10.5-3.7,20.9-5.6,31.4c-0.3,1.9-1,2.5-2.9,2.5c-4.3,0-8.6,0-12.8,0c-2.1,0-3.1-1.2-2.7-3.3c2.3-13.1,4.5-26.1,6.8-39.2
	c0.7-4.3,1.5-8.6,2.3-12.9c0.3-1.7,1.1-2.4,2.9-2.5c4-0.1,8-0.1,12,0c1.2,0,2.2,0.4,2.7,1.7c2.1-1.4,4.5-2.2,6.9-2.6
	c2.6-0.4,5,0.1,7.5,0.8c1.1,0.3,1.7,1.6,1.5,2.9C229.6,722.1,229,726.7,228.5,731.4L228.5,731.4z M189.9,770c4.5,0,8.9,0,13.2,0
	c0.3,0,0.7-0.5,0.7-0.8c1.9-10.5,3.7-21,5.6-31.5c0.2-1.2,0.3-2.3,1.2-3.3c3.3-3.6,7.4-4.8,12.1-4.4c1.1,0.1,2.2,0.2,3.4,0.4
	c0.6-4.6,1.2-9.1,1.8-13.7c-7.2-2-12.7,0.3-17,6.5c0.4-2.3,0.8-4.2,1.2-6.2c-4.3,0-8.6,0-13,0C196.1,734.6,193,752.2,189.9,770z"/>
<path d="M228.4,731.4c1.6-3.4,3.5-6.6,6.3-9.3c8.4-8.2,18.4-10.4,29.4-6.6c7.7,2.7,12.3,8.6,13.9,16.5c2.7,13.3,0,25.3-10.3,34.5
	c-8.3,7.4-18.2,8.8-28.6,4.7c-7.2-2.8-11.1-8.7-13-16.1c-2-7.8-0.7-15.3,1.9-22.7C228.2,732.1,228.3,731.7,228.4,731.4
	C228.5,731.4,228.4,731.4,228.4,731.4z M276.7,738.9c-0.2-1.3-0.3-3.5-0.7-5.6c-1.8-8.1-6.2-14.1-14.5-16.3
	c-9.5-2.5-18.3-0.5-25.1,6.9c-7.8,8.5-10.1,18.7-8,29.9c1.5,8.2,6.2,14.1,14.5,16.2c9.6,2.4,18.2,0.3,25.2-7
	C274.1,756.6,276.4,748.6,276.7,738.9z"/>
<path class="st0" d="M67.1,694.9c4.7,0,9.2,0,13.9,0c-2.4,13.5-4.7,26.9-7.1,40.5c0.3-0.2,0.5-0.4,0.7-0.5
	c5.6-5.7,11.3-11.4,16.9-17c0.3-0.3,0.8-0.6,1.2-0.6c5.6,0,11.3,0,17.2,0c-7.8,7.7-15.4,15.2-23.1,22.7c4.9,10,9.7,20,14.7,30
	c-0.4,0-0.7,0.1-1,0.1c-4.4,0-8.7,0-13.1,0c-0.8,0-1.2-0.3-1.5-1c-2.8-6.2-5.5-12.5-8.3-18.7c-0.2-0.4-0.4-0.8-0.6-1.3
	c-2.1,1.8-4.1,3.5-6,5.3c-0.3,0.2-0.4,0.7-0.4,1.1c-0.8,4.6-1.6,9.2-2.4,13.8c0,0.2-0.1,0.5-0.2,0.8c-4.6,0-9.1,0-13.8,0
	C58.4,744.9,62.7,719.9,67.1,694.9z"/>
<path class="st0" d="M131.9,782.4c2.5-3.1,4.7-5.8,7-8.6c4.6,5.5,10.4,7.4,17.1,5.1c6.1-2.1,8.3-7.2,9.4-13.2
	c-0.2,0.2-0.4,0.3-0.6,0.4c-7.9,7.7-23.4,7.1-28.1-7.8c-1.9-5.9-1.7-11.8-0.7-17.8c1.1-6.2,3.3-12,7.4-16.9c6.5-8,16.2-9.1,23.1-6.5
	c2.5,0.9,4.4,2.5,6.1,4.8c0.6-1.7,1.2-3.3,1.8-4.9c4.2,0,8.4,0,12.7,0c-0.4,2.4-0.8,4.6-1.1,6.9c-2,11.7-3.9,23.3-5.9,35
	c-0.8,4.4-1.3,8.9-2.4,13.2c-2.6,10.2-11.4,17.4-21.8,18.6c-6.8,0.7-13.2-0.1-18.9-4C135.3,785.4,133.7,783.9,131.9,782.4z
	 M149.3,748.5c0,2.4,0.2,5,1.4,7.3c1.1,2.1,2.8,3.4,5.1,3.7c4.2,0.5,7.5-1.2,10.2-4.1c0.4-0.4,0.6-0.9,0.7-1.4
	c1.2-6.6,2.3-13.2,3.7-19.8c0.5-2.5-0.5-4-2.2-5.3c-0.7-0.5-1.4-0.9-2.2-1.1c-3.5-1-6.7-0.6-9.6,1.6c-2.2,1.7-3.7,3.9-4.8,6.3
	C149.8,739.8,149.4,744,149.3,748.5z"/>
<path class="st0" d="M-44.3,717.2c4.7,0,9.2,0,13.8,0c-0.5,3.1-1,6.2-1.5,9.2c-1.4,8.2-2.8,16.4-4.2,24.7c-0.2,1.6-0.1,3.3,0.2,4.9
	c0.4,2,1.8,3.1,3.7,3.4c4.7,0.7,8.5-0.9,11.5-4.4c0.4-0.4,0.5-1.1,0.6-1.7c2.1-12,4.2-24,6.3-36c0,0,0-0.1,0.1-0.2
	c4.6,0,9.2,0,13.9,0c-3.1,17.5-6.1,35-9.2,52.6c-4.3,0-8.5,0-12.9,0c0.3-1.6,0.6-3.2,0.9-5.1c-0.5,0.5-0.9,0.8-1.2,1.1
	c-5.1,4.7-11.1,6-17.7,4.5c-5.4-1.3-9.2-6.1-10.1-12.2c-0.6-4,0.1-8,0.7-11.9C-47.6,736.6-46,726.9-44.3,717.2z"/>
<path class="st0" d="M321.3,717.2c4.6,0,9.2,0,13.9,0c-3.1,17.6-6.1,35.1-9.2,52.7c-4.3,0-8.5,0-12.9,0c0.3-1.6,0.6-3.2,0.9-5.2
	c-0.6,0.6-0.9,0.9-1.2,1.2c-5.1,4.7-11.1,6.1-17.7,4.4c-6.1-1.6-8.9-6.2-10-12.1c-0.7-4.1,0-8,0.7-12c1.6-9.5,3.2-19,4.8-28.5
	c0-0.2,0.1-0.3,0.1-0.5c4.6,0,9.1,0,13.8,0c-0.4,2.2-0.7,4.4-1.1,6.6c-1.5,9.1-3.1,18.3-4.6,27.4c-0.3,1.6-0.1,3.4,0.2,5
	c0.4,1.8,1.7,2.9,3.5,3.2c4.7,0.8,8.6-0.8,11.8-4.4c0.3-0.3,0.4-0.9,0.5-1.3c2.1-12,4.2-23.9,6.3-35.9
	C321.2,717.6,321.2,717.4,321.3,717.2z"/>
<path class="st0" d="M50.8,736.8c-4.4,0-8.6,0-12.9,0c-0.1-0.8-0.1-1.6-0.2-2.3c-1-6.4-7.5-9.1-13-5.4c-1.9,1.3-3.2,3.1-4.1,5.2
	c-2.4,6-3,12.2-2.3,18.6c0.3,2.8,1.5,5.3,4.5,6.3c3.3,1.1,6.4,0.5,9.1-1.8c1.7-1.5,2.6-3.4,3.2-5.6c4.3,0,8.5,0,13.1,0
	c-0.4,1.7-0.6,3.5-1.2,5.1c-2.8,7.6-8.6,11.8-16.2,13.6c-3.7,0.9-7.4,0.8-11.1-0.1c-7.1-1.8-12-6.3-13.9-13.2
	C2.5,745.6,4.3,734.5,12,725c6.6-8.1,15.5-10.3,25.4-7.8c7.6,2,11.8,7.5,13.1,15.1C50.6,733.6,50.6,735.2,50.8,736.8z"/>
<path class="st0" d="M-65.6,769.9c-4.2,0-8.3,0-12.4,0c0.2-1.7,0.5-3.4,0.7-5.3c-0.9,0.9-1.6,1.6-2.4,2.2
	c-5.9,5.1-14.6,5.6-20.5,1.2c-3.8-2.8-5.7-6.8-6.6-11.2c-2.1-11.2-0.3-21.7,5.7-31.3c3.2-5.1,7.8-8.5,14-9.3c5.8-0.8,11,0.5,15,5
	c0.1,0.1,0.3,0.2,0.5,0.5c1.7-9,3.4-17.8,5.1-26.7c4.6,0,9.2,0,13.9,0C-56.9,719.9-61.2,744.8-65.6,769.9z M-93.8,748.9
	c-0.1,0-0.2,0-0.3,0.1c0.5,2.2,0.8,4.5,1.5,6.7c0.7,2.2,2.4,3.4,4.7,3.7c4.8,0.8,8.6-2,11-5.2c0.2-0.2,0.2-0.6,0.3-0.9
	c1.2-6.6,2.3-13.3,3.5-19.9c0.1-0.5,0-1-0.2-1.5c-1.7-3.8-5.8-5.5-10.2-4.3c-3.9,1.1-6.2,3.9-7.7,7.5
	C-93,739.5-93.7,744.2-93.8,748.9z"/>
<path class="st0" d="M359.2,716.9c-0.3,1.7-0.5,3.2-0.8,5.1c0.6-0.6,1-1,1.5-1.4c4.7-4.3,10.1-5.6,16.2-4c5.1,1.3,8.4,4.8,10.4,9.5
	c1.5,3.6,2,7.4,2,11.2c0,8-1.5,15.6-5.5,22.6c-3.1,5.4-7.5,9.4-13.8,10.6c-6.1,1.2-11.8,0.2-16.2-4.7c-0.1-0.1-0.2-0.2-0.5-0.4
	c-1.6,8.3-3.2,16.5-4.8,24.8c-4.6,0-9.2,0-13.8,0c0.5-3.1,1.1-6.2,1.6-9.3c2-11.8,4.1-23.7,6.1-35.5c1.6-9.2,3.2-18.4,4.8-27.6
	c0.1-0.3,0.5-0.8,0.7-0.8C351.1,716.9,355.1,716.9,359.2,716.9z M374.7,737.9c-0.1-1.2-0.2-2.5-0.4-3.7c-0.6-4-2.8-6.3-6.3-6.6
	c-4.3-0.4-7.6,1.5-10.1,4.8c-0.2,0.3-0.3,0.7-0.4,1c-1.2,6.6-2.4,13.2-3.6,19.8c-0.2,1.1,0,2.1,0.6,3c1.9,2.9,5.9,4.2,9.9,3.1
	c3.8-1,6-3.8,7.5-7.2C373.9,747.5,374.5,742.7,374.7,737.9z"/>
<path class="st0" d="M189.9,770c3.1-17.8,6.1-35.3,9.2-53c4.4,0,8.7,0,13,0c-0.4,2-0.7,3.9-1.2,6.2c4.4-6.2,9.8-8.6,17-6.5
	c-0.6,4.6-1.2,9.1-1.8,13.7c-1.2-0.1-2.3-0.3-3.4-0.4c-4.7-0.4-8.8,0.8-12.1,4.4c-0.9,1-1,2.1-1.2,3.3c-1.9,10.5-3.7,21-5.6,31.5
	c-0.1,0.3-0.5,0.8-0.7,0.8C198.8,770,194.5,770,189.9,770z"/>
<path class="st0" d="M276.7,738.9c-0.3,9.7-2.5,17.7-8.8,24.2c-7,7.2-15.6,9.4-25.2,7c-8.3-2.1-13-8.1-14.5-16.2
	c-2.1-11.1,0.2-21.4,8-29.9c6.8-7.4,15.6-9.4,25.1-6.9c8.3,2.1,12.7,8.2,14.5,16.3C276.4,735.5,276.5,737.7,276.7,738.9z M262.8,739
	c-0.1-0.7-0.1-1.9-0.3-3.2c-0.8-6.5-5.7-9.8-11.7-7.8c-3.5,1.2-5.6,3.9-7.1,7.1c-2.5,5.6-3,11.4-2.1,17.4c0.8,5.2,4.5,7.7,9.7,7
	c4.1-0.6,6.6-3.2,8.4-6.6C262.1,748.7,262.6,744.2,262.8,739z"/>
<path d="M149.3,748.5c0.1-4.5,0.5-8.8,2.4-12.8c1.1-2.5,2.6-4.7,4.8-6.3c2.9-2.2,6.2-2.7,9.6-1.6c0.8,0.2,1.6,0.6,2.2,1.1
	c1.7,1.3,2.7,2.8,2.2,5.3c-1.4,6.6-2.4,13.2-3.7,19.8c-0.1,0.5-0.4,1.1-0.7,1.4c-2.8,2.9-6.1,4.6-10.2,4.1c-2.4-0.3-4-1.6-5.1-3.7
	C149.5,753.5,149.3,750.9,149.3,748.5z M151.6,748.3c0.1,1.3,0.1,2.6,0.3,3.9c0.6,3.8,3.1,5.7,6.8,4.9c1.6-0.4,3.1-1.4,4.6-2.2
	c1-0.6,1.4-1.6,1.6-2.8c1-6,2.1-12,3.2-17.9c0.3-1.9,0-2.7-1.6-3.6c-0.5-0.3-1.2-0.5-1.8-0.7c-3.9-0.9-7.4,0.9-9.8,4.8
	C152.3,738.8,151.7,743.5,151.6,748.3z"/>
<path d="M-93.8,748.9c0.1-4.7,0.8-9.4,2.6-13.8c1.5-3.6,3.7-6.4,7.7-7.5c4.4-1.2,8.5,0.5,10.2,4.3c0.2,0.4,0.3,1,0.2,1.5
	c-1.1,6.7-2.3,13.3-3.5,19.9c-0.1,0.3-0.1,0.7-0.3,0.9c-2.4,3.2-6.2,6-11,5.2c-2.3-0.4-4-1.6-4.7-3.7c-0.7-2.2-1-4.5-1.5-6.7
	C-94,749-93.9,749-93.8,748.9z M-91.5,749.3c0.1,0.8,0.1,2.1,0.3,3.4c0.4,3.3,2.1,4.7,5.4,4.5c2.5-0.1,4.4-1.4,5.9-3.2
	c0.5-0.6,0.9-1.3,1-2.1c1.1-5.8,2-11.6,3.1-17.4c0.3-1.4-0.1-2.5-1.1-3.3c-1-0.7-2.2-1.3-3.4-1.5c-3.7-0.4-6.6,1.5-8.5,5.4
	C-90.7,739.5-91.3,744.1-91.5,749.3z"/>
<path d="M374.7,737.9c-0.2,4.9-0.8,9.6-2.8,14.2c-1.5,3.4-3.7,6.2-7.5,7.2c-3.9,1.1-8-0.2-9.9-3.1c-0.6-0.9-0.9-1.9-0.6-3
	c1.2-6.6,2.4-13.2,3.6-19.8c0.1-0.3,0.1-0.7,0.4-1c2.5-3.3,5.9-5.2,10.1-4.8c3.5,0.3,5.7,2.7,6.3,6.6
	C374.6,735.4,374.6,736.6,374.7,737.9z M372.3,737.5c0-1.5,0-3.5-1-5.4c-0.8-1.4-1.9-2.2-3.7-2.3c-2.8-0.1-5.1,1-7,3
	c-0.4,0.4-0.7,1.1-0.8,1.7c-1.1,6.1-2.2,12.2-3.4,18.2c-0.3,1.4,0.1,2.4,1.2,3.1c0.7,0.5,1.4,0.9,2.2,1.1c3.9,0.9,7.3-0.7,9.3-4.4
	C371.5,748,372.1,743.1,372.3,737.5z"/>
<path d="M262.8,739c-0.2,5.2-0.7,9.7-2.9,13.8c-1.8,3.4-4.3,6-8.4,6.6c-5.2,0.7-9-1.8-9.7-7c-0.9-5.9-0.5-11.8,2.1-17.4
	c1.5-3.2,3.6-5.9,7.1-7.1c5.9-2,10.9,1.3,11.7,7.8C262.7,737.1,262.8,738.3,262.8,739z M260.4,739.6c0-2.3-0.1-4.6-1.2-6.8
	c-1-1.9-2.5-2.9-4.7-3c-2.9-0.1-5.2,1.1-6.8,3.4c-4.3,6-4.7,12.8-3.4,19.7c0.5,3,2.5,4.2,5.3,4.3c3.7,0.1,6.1-1.8,7.8-4.8
	C259.8,748.5,260.3,744.1,260.4,739.6z"/>
<g>
	<g>
		<path class="st1" d="M342.8,701.3c0.7-2.1,1.8-3.8,2.9-5.6c3.3-5.5,7.1-10.6,11.9-14.9c3.4-2.9,7.4-4.6,11.4-6.5
			c4.9-2.1,9.8-3.8,15.3-4.3c7.9-0.7,15.1,1.6,21.9,5.3c5.3,2.9,9.7,6.7,12.6,11.9c2.4,4.4,4,9.2,4.7,14.1c1.3,8,0.8,16-0.6,24
			c-1.3,8.9-3.2,17.5-5.3,26.1c-1.6-0.9-3.1-1.8-4.9-2.1c0.2-0.4-1.1-1.1-0.9-1.5c0.7-4.3,1.7-8.1,2-12.5c0.5-8.2-1.4-15.3-3.9-23.2
			c-2-6.3-3.4-11.6-8.1-16.4c-1.1-1.1-0.2-0.5-1.8-1.5c0.5,5.9-0.5,9-2.4,14.3c-1.5,4-3.4,8-5.5,11.7c-1.6-0.7-5-2.3-6.5-3
			c-0.6-0.3-1.5,0.3-2.1,0c-0.4-0.2-0.6-1.2-1-1.4c-0.9-0.4-2-0.9-2.9-1.3c-0.1,0-0.1,0-0.2-0.1c-5.9-2.5-11.8-5.2-17.6-7.8
			c-3.8-1.6-7.7-3.2-11.7-4.3C347.8,701.9,345.3,701.6,342.8,701.3z"/>
		<path class="st2" d="M385.8,717.4c1.6,0.7,3,1.4,4.6,2.1c1.8,0.9,3.7,1.8,5.4,2.8c4,2.2,8,4.6,10.8,8.4c1.8,3,1.6,5.5-1.2,8.8
			c-2.4,2.6-5.7,3.4-8.9,2.1c-12.1-5-24.4-9.9-36.3-15.3c-6.5-3-13.1-5.9-19.6-8.9c-4.6-2-6.4-6.5-4.6-11.2c1.7,2.6,4.2,4.4,7,5.7
			c3.1,1.5,6.1,3.1,9.2,4.5c7.3,3.2,14.5,6.8,22.2,9.2c3.6,1.2,6.7-0.2,9.1-2.9C384.6,721.2,385.7,719.5,385.8,717.4z"/>
		<path class="st3" d="M406.5,730.7c-2.9-3.7-6.8-6.2-10.8-8.4c-1.8-1-3.6-1.9-5.4-2.8c2.1-3.7,3.9-7.6,5.5-11.5
			c2.1-5.3,3.6-10.9,2.9-16.9c1.5,0.9,2.6,2,3.8,3.3c4.7,4.7,7.8,10.4,9.8,16.8c2.4,7.9,2.9,16,2.5,24.2c-0.3,4.4-0.7,8.6-1.6,12.9
			c-0.1,0.5-0.1,0.8-0.4,1.2c-1.6-0.2-3.2,0-4.8,0.3c0.5-5.7,1-11.5,0.9-17.4c0-1.6-0.1-3.3-0.5-5.1
			C407.7,728.5,407.1,729.6,406.5,730.7z"/>
		<path class="st4" d="M382.6,715.8"/>
		<path class="st4" d="M385.8,717.4c0.1,2.1-0.3,4.1-1.7,5.7c-2.3,2.7-6.2,3.8-9.9,2.5c-7.6-2.4-14.8-6-22.2-9.2
			c-3.1-1.4-6.2-2.9-9.2-4.5c-2.8-1.3-5.2-3.2-7-5.7c1-2.7,2.8-4.2,5.6-4.7c0.4-0.1,0.8-0.1,1.2-0.2c0.2,0,0.2-0.1,0.2-0.2l0,0
			c2.5,0.2,5,0.5,7.4,1.2c4,1.1,7.9,2.7,11.7,4.3c5.9,2.5,11.8,5.1,17.6,7.8"/>
		<path class="st2" d="M419.5,753.8c2.5,3.3,2.7,6.9,1.2,10.7c-2.1,4.9-7.7,7.5-12.6,6c-5.3-1.5-8.6-6.6-7.8-11.9
			c0.2-1.4,0.6-2.6,1.4-3.8c0.1,0.1,0.9,0.3,0.9,0.6c0.4,1.9,1.1,3.1,2.8,4.4c2.4,1.7,4.1,2.1,7,1.6c3-0.6,4.4-1.2,5.7-4.1
			C418.6,756,419.2,754.9,419.5,753.8z"/>
		<path class="st4" d="M419.5,753.8c-0.3,1.1,0,2.2-0.4,3.3c-1.2,2.8-3.5,4.3-6.5,4.9c-2.8,0.5-5.5-0.3-7.8-1.9
			c-1.7-1.1-2.5-2.8-2.9-4.8c-0.1-0.1-0.2-0.4-0.2-0.6c1.4-2.6,3.6-4,6.3-5c1.6-0.3,3.2-0.5,4.8-0.3c1.8,0.4,3.3,1.2,4.9,2.1
			C418.2,752.4,419.1,752.9,419.5,753.8z"/>
	</g>
</g>
</svg>
