<?xml version="1.0" encoding="utf-8"?>
<svg version="1.1" id="Layer_1" xmlns="http://www.w3.org/2000/svg" xmlns:xlink="http://www.w3.org/1999/xlink" x="0px" y="0px"
	 viewBox="-61.6 8 2051.1 392.5" style="enable-background:new -61.6 8 2051.1 392.5;" xml:space="preserve">
<style type="text/css">
	.st0{clip-path:url(#XMLID_4_);}
	.st1{fill-opacity:0.1;}
</style>
<g id="XMLID_2_">
	<defs>
		<path id="XMLID_8_" d="M-435.4,27.1c21-1.8,56.6,29.9,91.6,20c24.7-7,29.7-29.1,46.8-28.3c16,0.8,14.6,20.6,34.5,27.1
			c35,11.3,77.5-36.6,126.3-28.2c32.3,5.5,32.5,29.7,62.3,31.8C-39,51.9-30.9,19.4,12.6,13c54.1-7.8,81.4,36.6,143.5,30.6
			c38.1-3.7,35-21.2,77.8-29.4c62.5-12,85.4,22.1,164.4,21.2c77.6-0.9,95.6-34.3,150.4-23.5c51.5,10.1,51.5,42.5,95.1,45.9
			c52.2,4.1,68.7-41,129.7-42.4c58.4-1.3,71.3,39.4,129.7,37.6c60.7-1.8,85.6-47.1,126.3-38.8c33.1,6.7,31.3,39.5,60.6,42.4
			c31.2,3,40.9-33.7,90-44.7c51.2-11.5,72,21.4,148.8,21.2c71.3-0.1,78.2-28.6,143.6-24.7c63.1,3.7,71,31,128.1,28.2
			c49.4-2.4,53.8-23.4,103.8-22.4c41.8,0.9,49.1,15.8,95.1,14.1c28.4-1,31.8-7,69.2-9.4c31.8-2.1,56.3,0.4,74.4,2.4
			c69.1,7.4,89.2,23.5,115.9,14.1c21.3-7.6,16.6-20.9,36.3-24.7c29.1-5.5,47.5,21.8,83.1,17.6c22.9-2.7,27.2-15.5,48.4-14.1
			c18.7,1.2,20.7,11.4,39.8,12.9c21.3,1.8,30-10.1,51.9-12.9c0,0,28.5-3.7,69.2,18.8c54,29.9,183.9,376.9,13.8,592.8
			C2009.6,1123.5-99.1,1086-455.9,575.2C-599.4,370.3-500,32.6-435.4,27.1z"/>
	</defs>
	<clipPath id="XMLID_4_">
		<use xlink:href="#XMLID_8_"  style="overflow:visible;"/>
	</clipPath>
	<g id="XMLID_5_" class="st0">
		<path id="XMLID_7_" class="st1" d="M2387.4,32.9c54,29.9,183.9,376.9,13.8,592.8c-391.8,497.6-2500.5,460.2-2857.3-50.6
			c-143.3-204.9-44-542.5,20.7-548c21-1.8,56.6,29.9,91.6,20c24.7-7,29.7-29.1,46.8-28.3c16,0.8,14.6,20.6,34.5,27.1
			c35,11.3,77.5-36.6,126.3-28.2c32.3,5.5,32.5,29.7,62.3,31.8C-39,51.9-30.9,19.4,12.6,13c54.1-7.8,81.4,36.6,143.5,30.6
			c38.1-3.7,35-21.2,77.8-29.4c62.5-12,85.4,22.1,164.4,21.2c77.6-0.9,95.6-34.3,150.4-23.5c51.5,10.1,51.5,42.5,95.1,45.9
			c52.2,4.1,68.7-41,129.7-42.4c58.4-1.3,71.3,39.4,129.7,37.6c60.7-1.8,85.6-47.1,126.3-38.8c33.1,6.7,31.3,39.5,60.6,42.4
			c31.2,3,40.9-33.7,90-44.7c51.2-11.5,72,21.4,148.8,21.2c71.3-0.1,78.2-28.6,143.6-24.7c63.1,3.7,71,31,128.1,28.2
			c49.4-2.4,53.8-23.4,103.8-22.4c41.8,0.9,49.1,15.8,95.1,14.1c28.4-1,31.8-7,69.2-9.4c31.8-2.1,56.3,0.4,74.4,2.4
			c69.1,7.4,89.2,23.5,115.9,14.1c21.3-7.6,16.6-20.9,36.3-24.7c29.1-5.5,47.5,21.8,83.1,17.6c22.9-2.7,27.2-15.5,48.4-14.1
			c18.7,1.2,20.7,11.4,39.8,12.9c21.3,1.8,30-10.1,51.9-12.9C2318.2,14.1,2346.7,10.4,2387.4,32.9z"/>
	</g>
</g>
</svg>
